<mxfile host="65bd71144e">
    <diagram id="2gG1aso1CCN3E3-dKBOI" name="Page-1">
        <mxGraphModel dx="734" dy="449" grid="1" gridSize="10" guides="1" tooltips="1" connect="1" arrows="1" fold="1" page="1" pageScale="1" pageWidth="850" pageHeight="1100" math="0" shadow="0">
            <root>
                <mxCell id="0"/>
                <mxCell id="1" parent="0"/>
                <mxCell id="6" value="DirectoryService" style="html=1;" parent="1" vertex="1">
                    <mxGeometry x="340" y="260" width="110" height="40" as="geometry"/>
                </mxCell>
                <mxCell id="7" value="LoggingService" style="html=1;" parent="1" vertex="1">
                    <mxGeometry x="200" y="330" width="90" height="29" as="geometry"/>
                </mxCell>
                <mxCell id="8" value="NodeInfo" style="html=1;" parent="1" vertex="1">
                    <mxGeometry x="520" y="265.5" width="70" height="29" as="geometry"/>
                </mxCell>
                <mxCell id="11" value="&lt;b&gt;TreeService&lt;/b&gt;" style="html=1;" parent="1" vertex="1">
                    <mxGeometry x="340" y="140" width="110" height="50" as="geometry"/>
                </mxCell>
                <mxCell id="19" value="1" style="endArrow=open;html=1;endSize=12;startArrow=diamondThin;startSize=14;startFill=1;edgeStyle=orthogonalEdgeStyle;align=left;verticalAlign=bottom;entryX=0.5;entryY=1;entryDx=0;entryDy=0;exitX=0.5;exitY=0;exitDx=0;exitDy=0;" parent="1" source="6" target="11" edge="1">
                    <mxGeometry x="-0.6667" y="15" relative="1" as="geometry">
                        <mxPoint x="410" y="230" as="sourcePoint"/>
                        <mxPoint x="430" y="240" as="targetPoint"/>
                        <mxPoint as="offset"/>
                    </mxGeometry>
                </mxCell>
                <mxCell id="21" value="Use" style="endArrow=open;endSize=12;dashed=1;html=1;entryX=1;entryY=0;entryDx=0;entryDy=0;exitX=0;exitY=1;exitDx=0;exitDy=0;" parent="1" source="6" target="7" edge="1">
                    <mxGeometry width="160" relative="1" as="geometry">
                        <mxPoint x="290" y="355" as="sourcePoint"/>
                        <mxPoint x="360" y="355" as="targetPoint"/>
                    </mxGeometry>
                </mxCell>
                <mxCell id="22" value="Use" style="endArrow=open;endSize=12;dashed=1;html=1;entryX=0;entryY=0.5;entryDx=0;entryDy=0;exitX=1;exitY=0.5;exitDx=0;exitDy=0;" parent="1" source="6" target="8" edge="1">
                    <mxGeometry width="160" relative="1" as="geometry">
                        <mxPoint x="350" y="170" as="sourcePoint"/>
                        <mxPoint x="230" y="361" as="targetPoint"/>
                    </mxGeometry>
                </mxCell>
                <mxCell id="23" value="&lt;b&gt;MemoryService&lt;/b&gt;" style="html=1;" vertex="1" parent="1">
                    <mxGeometry x="340" y="40" width="110" height="50" as="geometry"/>
                </mxCell>
                <mxCell id="24" value="1" style="endArrow=open;html=1;endSize=12;startArrow=diamondThin;startSize=14;startFill=1;edgeStyle=orthogonalEdgeStyle;align=left;verticalAlign=bottom;entryX=0.5;entryY=1;entryDx=0;entryDy=0;exitX=0.5;exitY=0;exitDx=0;exitDy=0;" edge="1" parent="1" source="11" target="23">
                    <mxGeometry x="-0.6667" y="15" relative="1" as="geometry">
                        <mxPoint x="405" y="270" as="sourcePoint"/>
                        <mxPoint x="405" y="200" as="targetPoint"/>
                        <mxPoint as="offset"/>
                    </mxGeometry>
                </mxCell>
                <mxCell id="25" value="DirectoryController" style="html=1;" vertex="1" parent="1">
                    <mxGeometry x="340" y="390" width="110" height="40" as="geometry"/>
                </mxCell>
                <mxCell id="27" value="1" style="endArrow=open;html=1;endSize=12;startArrow=diamondThin;startSize=14;startFill=1;edgeStyle=orthogonalEdgeStyle;align=left;verticalAlign=bottom;exitX=0.5;exitY=0;exitDx=0;exitDy=0;entryX=0.5;entryY=1;entryDx=0;entryDy=0;" edge="1" parent="1" source="25" target="6">
                    <mxGeometry x="-0.6667" y="15" relative="1" as="geometry">
                        <mxPoint x="405" y="270" as="sourcePoint"/>
                        <mxPoint x="395" y="320" as="targetPoint"/>
                        <mxPoint as="offset"/>
                    </mxGeometry>
                </mxCell>
                <mxCell id="28" value="Use" style="endArrow=open;endSize=12;dashed=1;html=1;entryX=1;entryY=1;entryDx=0;entryDy=0;exitX=0;exitY=0.5;exitDx=0;exitDy=0;" edge="1" parent="1" source="25" target="7">
                    <mxGeometry width="160" relative="1" as="geometry">
                        <mxPoint x="460" y="310" as="sourcePoint"/>
                        <mxPoint x="530" y="361" as="targetPoint"/>
                    </mxGeometry>
                </mxCell>
            </root>
        </mxGraphModel>
    </diagram>
</mxfile>